<?xml version="1.0" encoding="UTF-8" standalone="no"?>
<svg xmlns:dc="http://purl.org/dc/elements/1.1/" xmlns:cc="http://creativecommons.org/ns#" xmlns:rdf="http://www.w3.org/1999/02/22-rdf-syntax-ns#" xmlns:svg="http://www.w3.org/2000/svg" xmlns="http://www.w3.org/2000/svg" viewBox="0 0 811.58752 266.5" height="266.5" width="811.58752" xml:space="preserve" version="1.1" id="svg2"><metadata id="metadata8"><rdf:RDF><cc:Work rdf:about=""><dc:format>image/svg+xml</dc:format><dc:type rdf:resource="http://purl.org/dc/dcmitype/StillImage"/></cc:Work></rdf:RDF></metadata><defs id="defs6"/><g transform="matrix(1.25,0,0,-1.25,0,266.5)" id="g10"><g transform="scale(0.1,0.1)" id="g12"><path id="path14" style="fill:#ffffff;fill-opacity:1;fill-rule:nonzero;stroke:none" d="m 1857.97,1987.15 c -33.26,35.31 -64.04,44.89 -95.49,44.89 -93.56,0 -155.67,-71.68 -155.67,-162.12 0,-96.74 62.11,-168.49 155.67,-168.49 36.48,0 71.8,16.66 101.92,55.05 l 66.65,-47.47 c -41.02,-56.24 -102.52,-80.63 -169.17,-80.63 -139.69,0 -239.67,94.81 -239.67,236.44 0,145.41 99.98,240.26 239.67,240.26 61.56,0 114.03,-19.84 158.82,-71.76 l -62.73,-46.17"/><path id="path16" style="fill:#ffffff;fill-opacity:1;fill-rule:nonzero;stroke:none" d="m 1966.94,1639.89 76.8398,0 0,307.613 -76.8398,0 0,-307.613 z"/><path id="path18" style="fill:#ffffff;fill-opacity:1;fill-rule:nonzero;stroke:none" d="m 2083.53,1882.15 0,65.35 63.44,0 0,89.09 76.95,0 0,-89.09 84.49,0 0,-65.35 -84.49,0 0,-134.58 c 0,-30.81 8.85,-49.93 42.91,-49.93 13.34,0 31.94,2.49 41.58,9.57 l 0,-64.72 c -16.02,-7.73 -42.86,-10.29 -60.91,-10.29 -81.31,0 -100.53,36.57 -100.53,108.98 l 0,140.97 -63.44,0"/><path id="path20" style="fill:#ffffff;fill-opacity:1;fill-rule:nonzero;stroke:none" d="m 2382.75,1555.33 c 37.75,0 48,13.42 60.89,45.46 l 14.68,36.55 -131.38,310.16 84.71,0 85.86,-213.32 1.17,0 76.95,213.32 80.12,0 -145.51,-373.62 c -22.41,-57.65 -58.51,-86.48 -126.43,-86.48 l -1.06,67.93"/><path id="path22" style="fill:#ffffff;fill-opacity:1;fill-rule:nonzero;stroke:none" d="m 2940.2,1701.43 c 56.35,0 90.39,44.2 90.39,92.24 0,48.04 -34.04,92.33 -90.39,92.33 -56.43,0 -90.36,-44.29 -90.36,-92.33 0,-48.04 33.93,-92.24 90.36,-92.24 z m 0,253.72 c 92.88,0 167.23,-64.64 167.23,-161.48 0,-96.71 -74.35,-161.47 -167.23,-161.47 -92.97,0 -167.32,64.76 -167.32,161.47 0,96.84 74.35,161.48 167.32,161.48"/><path id="path24" style="fill:#ffffff;fill-opacity:1;fill-rule:nonzero;stroke:none" d="m 3181.04,1882.15 -63.36,0 0,65.35 63.36,0 0,43.52 c 0,85.23 19.29,141.01 114.76,141.01 16.7,0 32.71,-1.33 48.73,-4.55 l -5.12,-65.3 c -10.9,2.57 -21.15,4.46 -31.97,4.46 -42.97,0 -49.4,-29.42 -49.4,-63.44 l 0,-55.7 71.08,0 0,-65.35 -71.08,0 0,-242.26 -77,0 0,242.26"/><path id="path26" style="fill:#ffffff;fill-opacity:1;fill-rule:nonzero;stroke:none" d="m 6039.4,974.859 c 55.02,-53.777 115.09,-81.32 200.35,-81.32 72.58,0 125.23,27.543 125.23,81.32 0,45.131 -33.84,58.841 -77.64,62.641 l -112.72,10 c -105.23,8.79 -182.86,71.47 -182.86,180.39 0,128.97 102.66,195.34 236.69,195.34 111.44,0 186.68,-33.81 249.17,-86.38 l -78.75,-92.67 c -50.11,35.01 -101.56,58.78 -170.42,58.78 -81.39,0 -108.96,-32.56 -108.96,-76.35 0,-27.52 20.06,-55.13 83.87,-60.06 l 105.19,-7.57 c 131.49,-8.69 184.19,-88.95 184.19,-190.289 0,-124.043 -115.22,-195.351 -263.12,-195.351 -102.59,0 -197.7,37.492 -279.2,113.879 l 88.98,87.64"/><path id="path28" style="fill:#ffffff;fill-opacity:1;fill-rule:nonzero;stroke:none" d="m 2639.53,1546.04 127.83,0 0,-130.29 92.56,0 0,-97.67 -92.56,0 0,-369.439 c 0,-35.141 13.66,-47.571 45.05,-47.571 l 47.51,0 0,-120.261 -66.34,0 c -88.95,0 -154.05,56.363 -154.05,156.492 l 0,380.779 -63.9,0 0,97.67 63.9,0 0,130.29"/><path id="path30" style="fill:#ffffff;fill-opacity:1;fill-rule:nonzero;stroke:none" d="m 4592.69,1672.45 127.77,0 0,-727.618 c 0,-28.781 16.28,-43.762 47.56,-43.762 l 43.85,0 0,-120.261 -56.31,0 c -92.78,0 -162.87,40.152 -162.87,154.07 l 0,737.571"/><path id="path32" style="fill:#ffffff;fill-opacity:1;fill-rule:nonzero;stroke:none" d="m 4872.65,1672.45 127.73,0 0,-727.618 c 0,-28.781 16.32,-43.762 47.54,-43.762 l 43.86,0 0,-120.261 -56.37,0 c -92.63,0 -162.76,40.152 -162.76,154.07 l 0,737.571"/><path id="path34" style="fill:#ffffff;fill-opacity:1;fill-rule:nonzero;stroke:none" d="m 5166.67,780.809 127.77,0 0,567.32 -127.77,0 0,-567.32 z"/><path id="path36" style="fill:#ffffff;fill-opacity:1;fill-rule:nonzero;stroke:none" d="m 5166.67,1389.43 127.77,0 0,127.777 -127.77,0 0,-127.777 z"/><path id="path38" style="fill:#ffffff;fill-opacity:1;fill-rule:nonzero;stroke:none" d="m 5389.16,1415.75 127.72,0 0,-67.62 2.55,0 c 40.08,50.05 97.65,75.1 165.26,75.1 98.97,0 211.66,-76.42 211.66,-220.4 l 0,-422.021 -127.67,0 0,378.171 c 0,86.4 -53.87,136.51 -125.18,136.51 -72.62,0 -126.62,-50.11 -126.62,-136.51 l 0,-378.171 -127.72,0 0,634.941"/><path id="path40" style="fill:#ffffff;fill-opacity:1;fill-rule:nonzero;stroke:none" d="m 2113.86,1415.75 127.78,0 0,-67.62 2.49,0 c 40.07,50.05 97.65,75.1 165.31,75.1 51.31,0 93.93,-18.76 132.76,-48.84 l -92.68,-110.21 c -30.06,22.57 -51.26,31.31 -83.87,31.31 -62.62,0 -124.01,-40.07 -124.01,-132.79 l 0,-381.891 -127.78,0 0,634.941"/><path id="path42" style="fill:#ffffff;fill-opacity:1;fill-rule:nonzero;stroke:none" d="m 4014.88,1097.45 c 0,112.79 91.73,204.5 204.5,204.5 112.78,0 204.57,-91.71 204.57,-204.5 0,-112.739 -91.79,-204.52 -204.57,-204.52 -112.77,0 -204.5,91.781 -204.5,204.52 z m -121.73,0 c 0,-179.868 146.43,-326.259 326.23,-326.259 179.92,0 326.31,146.391 326.31,326.259 0,179.87 -146.39,326.23 -326.31,326.23 -179.8,0 -326.23,-146.36 -326.23,-326.23"/><path id="path44" style="fill:#ffffff;fill-opacity:1;fill-rule:nonzero;stroke:none" d="m 3089.45,1217.06 c 0,-242.81 197.56,-440.341 440.3,-440.341 138.53,0 270.62,66.39 353.43,177.64 l -97.66,72.701 c -60.84,-81.708 -154,-128.54 -255.77,-128.54 -175.66,0 -318.52,142.89 -318.52,318.54 0,175.65 142.86,318.63 318.52,318.63 95.5,0 185.25,-42.37 246.08,-116.14 l 93.95,77.4 c -84.03,102.02 -207.98,160.44 -340.03,160.44 -242.74,0 -440.3,-197.48 -440.3,-440.33"/><path id="path46" style="fill:#ffffff;fill-opacity:1;fill-rule:nonzero;stroke:none" d="m 1529.47,1097.45 c 0,112.79 91.73,204.5 204.39,204.5 112.77,0 204.5,-91.71 204.5,-204.5 0,-112.739 -91.73,-204.52 -204.5,-204.52 -112.66,0 -204.39,91.781 -204.39,204.52 z m -121.79,0 c 0,-179.868 146.42,-326.259 326.18,-326.259 179.87,0 326.24,146.391 326.24,326.259 0,179.87 -146.37,326.23 -326.24,326.23 -179.76,0 -326.18,-146.36 -326.18,-326.23"/><path id="path48" style="fill:#ffffff;fill-opacity:1;fill-rule:nonzero;stroke:none" d="m 1176.76,781.039 -63.34,12.813 -75.67,-65.481 -13.01,84.859 -177.986,35.782 -75.902,-74.641 -22.868,89.598 C 291.313,825.301 0,277.449 0,277.449 c 0,0 424.949,491.031 720.691,519.711 l 35.11,-113.359 109.769,106.558 112.438,-26.558 24.582,-122.379 111.79,84.707 48.48,-11.66 C 1678.39,-253.891 2559.73,284.23 2559.73,284.23 1584.89,157.699 1520.56,587.578 1176.76,781.039"/><path id="path50" style="fill:#ffffff;fill-opacity:1;fill-rule:nonzero;stroke:none" d="m 1005.14,1161.51 370.75,0 0,120.25 -370.75,0 0,262.95 434.64,0 0,127.74 -569.885,0 0,-763.27 135.245,-27.18 0,279.51"/><path id="path52" style="fill:#ffffff;fill-opacity:1;fill-rule:nonzero;stroke:none" d="M 1454.83,267.039 C 2501.66,-539.52 3657.13,1634.22 6437.2,106.852 c 0,0 -1393.83,731.218 -2923.04,171.628 C 1820.33,-341.352 1454.83,267.039 1454.83,267.039"/><path id="path54" style="fill:#ffffff;fill-opacity:1;fill-rule:nonzero;stroke:none" d="m 1967.02,1978.32 76.5625,0 0,76.5625 -76.5625,0 0,-76.5625 z"/></g></g></svg>